<svg width="220" height="40" viewBox="0 0 220 40" fill="none" xmlns="http://www.w3.org/2000/svg">
<path d="M37.82 30V16.112H40.984L41.264 18.464C41.6933 17.6427 42.3093 16.9893 43.112 16.504C43.9333 16.0187 44.8947 15.776 45.996 15.776C47.7133 15.776 49.048 16.3173 50 17.4C50.952 18.4827 51.428 20.0693 51.428 22.16V30H47.844V22.496C47.844 21.3013 47.6013 20.3867 47.116 19.752C46.6307 19.1173 45.8747 18.8 44.848 18.8C43.84 18.8 43.0093 19.1547 42.356 19.864C41.7213 20.5733 41.404 21.5627 41.404 22.832V30H37.82ZM60.0632 30.336C58.3272 30.336 56.9832 29.7947 56.0312 28.712C55.0978 27.6293 54.6312 26.0427 54.6312 23.952V16.112H58.1872V23.616C58.1872 24.8107 58.4298 25.7253 58.9152 26.36C59.4005 26.9947 60.1658 27.312 61.2112 27.312C62.2005 27.312 63.0125 26.9573 63.6472 26.248C64.3005 25.5387 64.6272 24.5493 64.6272 23.28V16.112H68.2112V30H65.0472L64.7672 27.648C64.3378 28.4693 63.7125 29.1227 62.8912 29.608C62.0885 30.0933 61.1458 30.336 60.0632 30.336ZM70.5743 30L75.6143 23.056L70.5743 16.112H74.4103L77.9383 21.04L81.4383 16.112H85.3023L80.2343 23.056L85.3023 30H81.4383L77.9383 25.072L74.4103 30H70.5743ZM93.7736 30C92.3176 30 91.151 29.6453 90.2736 28.936C89.3963 28.2267 88.9576 26.9667 88.9576 25.156V19.108H86.5776V16.112H88.9576L89.3776 12.388H92.5416V16.112H96.2936V19.108H92.5416V25.184C92.5416 25.856 92.6816 26.3227 92.9616 26.584C93.2603 26.8267 93.7643 26.948 94.4736 26.948H96.2096V30H93.7736ZM98.1948 33.108L105.195 8.244H108.695L101.667 33.108H98.1948Z" fill="#003C3C"/>
<path d="M111.8 30V19.108H109.896V16.112H111.8V14.488C111.8 12.808 112.22 11.6133 113.06 10.904C113.919 10.1947 115.076 9.84 116.532 9.84H118.072V12.892H117.092C116.476 12.892 116.037 13.0133 115.776 13.256C115.515 13.4987 115.384 13.9093 115.384 14.488V16.112H124.344V30H120.76V19.108H115.384V30H111.8ZM122.58 14.124C121.927 14.124 121.385 13.928 120.956 13.536C120.545 13.144 120.34 12.6493 120.34 12.052C120.34 11.4547 120.545 10.9693 120.956 10.596C121.385 10.204 121.927 10.008 122.58 10.008C123.233 10.008 123.765 10.204 124.176 10.596C124.605 10.9693 124.82 11.4547 124.82 12.052C124.82 12.6493 124.605 13.144 124.176 13.536C123.765 13.928 123.233 14.124 122.58 14.124ZM128.136 30V16.112H131.328L131.664 18.716C132.168 17.82 132.85 17.1107 133.708 16.588C134.586 16.0467 135.612 15.776 136.788 15.776V19.556H135.78C134.996 19.556 134.296 19.6773 133.68 19.92C133.064 20.1627 132.579 20.5827 132.224 21.18C131.888 21.7773 131.72 22.608 131.72 23.672V30H128.136ZM145.74 30.336C144.34 30.336 143.099 30.0373 142.016 29.44C140.933 28.8427 140.084 28.0027 139.468 26.92C138.852 25.8373 138.544 24.5867 138.544 23.168C138.544 21.7307 138.843 20.452 139.44 19.332C140.056 18.212 140.896 17.344 141.96 16.728C143.043 16.0933 144.312 15.776 145.768 15.776C147.131 15.776 148.335 16.0747 149.38 16.672C150.425 17.2693 151.237 18.0907 151.816 19.136C152.413 20.1627 152.712 21.3107 152.712 22.58C152.712 22.7853 152.703 23 152.684 23.224C152.684 23.448 152.675 23.6813 152.656 23.924H142.1C142.175 25.0067 142.548 25.856 143.22 26.472C143.911 27.088 144.741 27.396 145.712 27.396C146.44 27.396 147.047 27.2373 147.532 26.92C148.036 26.584 148.409 26.1547 148.652 25.632H152.292C152.031 26.5093 151.592 27.312 150.976 28.04C150.379 28.7493 149.632 29.3093 148.736 29.72C147.859 30.1307 146.86 30.336 145.74 30.336ZM145.768 18.688C144.891 18.688 144.116 18.94 143.444 19.444C142.772 19.9293 142.343 20.676 142.156 21.684H149.072C149.016 20.7693 148.68 20.0413 148.064 19.5C147.448 18.9587 146.683 18.688 145.768 18.688ZM163.958 30.336C162.913 30.336 161.998 30.14 161.214 29.748C160.43 29.356 159.796 28.8053 159.31 28.096L158.918 30H155.726V9.84H159.31V18.1C159.758 17.484 160.346 16.9427 161.074 16.476C161.821 16.0093 162.782 15.776 163.958 15.776C165.265 15.776 166.432 16.0933 167.458 16.728C168.485 17.3627 169.297 18.2307 169.894 19.332C170.492 20.4333 170.79 21.684 170.79 23.084C170.79 24.484 170.492 25.7347 169.894 26.836C169.297 27.9187 168.485 28.7773 167.458 29.412C166.432 30.028 165.265 30.336 163.958 30.336ZM163.202 27.2C164.341 27.2 165.284 26.8173 166.03 26.052C166.777 25.2867 167.15 24.2973 167.15 23.084C167.15 21.8707 166.777 20.872 166.03 20.088C165.284 19.304 164.341 18.912 163.202 18.912C162.045 18.912 161.093 19.304 160.346 20.088C159.618 20.8533 159.254 21.8427 159.254 23.056C159.254 24.2693 159.618 25.268 160.346 26.052C161.093 26.8173 162.045 27.2 163.202 27.2ZM178.78 30.336C177.585 30.336 176.605 30.1493 175.84 29.776C175.075 29.384 174.505 28.8707 174.132 28.236C173.759 27.6013 173.572 26.9013 173.572 26.136C173.572 24.848 174.076 23.8027 175.084 23C176.092 22.1973 177.604 21.796 179.62 21.796H183.148V21.46C183.148 20.508 182.877 19.808 182.336 19.36C181.795 18.912 181.123 18.688 180.32 18.688C179.592 18.688 178.957 18.8653 178.416 19.22C177.875 19.556 177.539 20.06 177.408 20.732H173.908C174.001 19.724 174.337 18.8467 174.916 18.1C175.513 17.3533 176.279 16.784 177.212 16.392C178.145 15.9813 179.191 15.776 180.348 15.776C182.327 15.776 183.885 16.2707 185.024 17.26C186.163 18.2493 186.732 19.6493 186.732 21.46V30H183.68L183.344 27.76C182.933 28.5067 182.355 29.1227 181.608 29.608C180.88 30.0933 179.937 30.336 178.78 30.336ZM179.592 27.536C180.619 27.536 181.412 27.2 181.972 26.528C182.551 25.856 182.915 25.0253 183.064 24.036H180.012C179.06 24.036 178.379 24.2133 177.968 24.568C177.557 24.904 177.352 25.324 177.352 25.828C177.352 26.3693 177.557 26.7893 177.968 27.088C178.379 27.3867 178.92 27.536 179.592 27.536ZM195.892 30.336C194.66 30.336 193.577 30.14 192.644 29.748C191.711 29.3373 190.964 28.7773 190.404 28.068C189.844 27.3587 189.508 26.5373 189.396 25.604H193.008C193.12 26.1453 193.419 26.612 193.904 27.004C194.408 27.3773 195.052 27.564 195.836 27.564C196.62 27.564 197.189 27.4053 197.544 27.088C197.917 26.7707 198.104 26.4067 198.104 25.996C198.104 25.3987 197.843 24.9973 197.32 24.792C196.797 24.568 196.069 24.3533 195.136 24.148C194.539 24.0173 193.932 23.8587 193.316 23.672C192.7 23.4853 192.131 23.252 191.608 22.972C191.104 22.6733 190.693 22.3 190.376 21.852C190.059 21.3853 189.9 20.816 189.9 20.144C189.9 18.912 190.385 17.876 191.356 17.036C192.345 16.196 193.727 15.776 195.5 15.776C197.143 15.776 198.449 16.1587 199.42 16.924C200.409 17.6893 200.997 18.744 201.184 20.088H197.796C197.591 19.0613 196.816 18.548 195.472 18.548C194.8 18.548 194.277 18.6787 193.904 18.94C193.549 19.2013 193.372 19.528 193.372 19.92C193.372 20.3307 193.643 20.6573 194.184 20.9C194.725 21.1427 195.444 21.3667 196.34 21.572C197.311 21.796 198.197 22.048 199 22.328C199.821 22.5893 200.475 22.9907 200.96 23.532C201.445 24.0547 201.688 24.8107 201.688 25.8C201.707 26.6587 201.483 27.4333 201.016 28.124C200.549 28.8147 199.877 29.356 199 29.748C198.123 30.14 197.087 30.336 195.892 30.336ZM211.611 30.336C210.211 30.336 208.97 30.0373 207.887 29.44C206.804 28.8427 205.955 28.0027 205.339 26.92C204.723 25.8373 204.415 24.5867 204.415 23.168C204.415 21.7307 204.714 20.452 205.311 19.332C205.927 18.212 206.767 17.344 207.831 16.728C208.914 16.0933 210.183 15.776 211.639 15.776C213.002 15.776 214.206 16.0747 215.251 16.672C216.296 17.2693 217.108 18.0907 217.687 19.136C218.284 20.1627 218.583 21.3107 218.583 22.58C218.583 22.7853 218.574 23 218.555 23.224C218.555 23.448 218.546 23.6813 218.527 23.924H207.971C208.046 25.0067 208.419 25.856 209.091 26.472C209.782 27.088 210.612 27.396 211.583 27.396C212.311 27.396 212.918 27.2373 213.403 26.92C213.907 26.584 214.28 26.1547 214.523 25.632H218.163C217.902 26.5093 217.463 27.312 216.847 28.04C216.25 28.7493 215.503 29.3093 214.607 29.72C213.73 30.1307 212.731 30.336 211.611 30.336ZM211.639 18.688C210.762 18.688 209.987 18.94 209.315 19.444C208.643 19.9293 208.214 20.676 208.027 21.684H214.943C214.887 20.7693 214.551 20.0413 213.935 19.5C213.319 18.9587 212.554 18.688 211.639 18.688Z" fill="#FFA000"/>
<path d="M4.49805 29.8182L8.39795 4.6181C8.45187 4.2181 8.82928 3.94537 9.22466 4.0181C9.44032 4.05446 9.63802 4.19992 9.74585 4.39992L13.7716 12L15.3711 8.90903C15.5508 8.5454 15.9821 8.41812 16.3415 8.59994C16.4673 8.67267 16.5752 8.78176 16.6471 8.90903L27.5021 29.8182H4.49805Z" fill="#FFA000"/>
<path d="M17.959 19.9999L13.7716 11.9817L4.49805 29.8181L17.959 19.9999Z" fill="#F57C00"/>
<path d="M27.5021 29.8183L24.5188 11.1454C24.4469 10.7454 24.0874 10.4909 23.6921 10.5454C23.5483 10.5636 23.4045 10.6363 23.2967 10.7454L4.49805 29.8183L14.9038 35.7274C15.5508 36.091 16.3595 36.091 17.0065 35.7274L27.5021 29.8183Z" fill="#FFCA28"/>
<path d="M24.5366 11.1635C24.4648 10.7635 24.1053 10.509 23.7099 10.5635C23.5662 10.5817 23.4224 10.6544 23.3146 10.7635L19.5764 14.5453L16.647 8.89077C16.4672 8.52713 16.0359 8.39985 15.6765 8.58167C15.5507 8.6544 15.4429 8.76349 15.371 8.89077L13.7715 11.9817L9.74575 4.38165C9.56603 4.03619 9.11674 3.89074 8.77527 4.09074C8.57758 4.19983 8.4338 4.39983 8.39786 4.61802L4.49795 29.8182H4.47998L4.49795 29.8363L4.60578 29.8909L19.5764 14.7272L23.3146 10.9453C23.6021 10.6544 24.0514 10.6544 24.3389 10.9453C24.4468 11.0544 24.5187 11.1817 24.5366 11.3453L27.484 29.8363L27.52 29.8182L24.5366 11.1635ZM4.5339 29.7818L8.39786 4.79983C8.45177 4.39983 8.82918 4.1271 9.22457 4.19983C9.44023 4.23619 9.63792 4.38165 9.74575 4.58165L13.7715 12.1817L15.371 9.09077C15.5507 8.72713 15.982 8.59985 16.3414 8.78167C16.4672 8.8544 16.5751 8.96349 16.647 9.09077L19.5225 14.6181L4.5339 29.7818Z" fill="white" fill-opacity="0.2"/>
<path opacity="0.2" d="M17.0065 35.5455C16.3595 35.9091 15.5508 35.9091 14.9038 35.5455L4.51602 29.6545L4.49805 29.8182L14.9038 35.7273C15.5508 36.0909 16.3595 36.0909 17.0065 35.7273L27.5021 29.8182L27.4841 29.6545L17.0065 35.5455Z" fill="#A52714"/>
<path d="M24.5367 11.1635C24.4648 10.7635 24.1054 10.509 23.71 10.5635C23.5663 10.5817 23.4225 10.6544 23.3146 10.7635L19.5765 14.5453L16.6471 8.89076C16.4673 8.52713 16.036 8.39985 15.6766 8.58167C15.5508 8.6544 15.4429 8.76349 15.3711 8.89076L13.7716 11.9817L9.74585 4.38165C9.56613 4.03619 9.11683 3.89074 8.77536 4.09074C8.57767 4.19983 8.4339 4.39983 8.39795 4.61802L4.49805 29.8181L14.9038 35.7273C15.5508 36.0909 16.3595 36.0909 17.0065 35.7273L27.5021 29.8181L24.5367 11.1635Z" fill="url(#paint0_linear)"/>
<defs>
<linearGradient id="paint0_linear" x1="3.87869" y1="9.63124" x2="28.1839" y2="33.6558" gradientUnits="userSpaceOnUse">
<stop stop-color="white" stop-opacity="0.1"/>
<stop offset="1" stop-color="white" stop-opacity="0"/>
</linearGradient>
</defs>
</svg>
